<?xml version="1.0" encoding="utf-8"?>
<!-- Generator: Adobe Illustrator 22.1.0, SVG Export Plug-In . SVG Version: 6.00 Build 0)  -->
<svg version="1.1" id="Layer_1" xmlns="http://www.w3.org/2000/svg" xmlns:xlink="http://www.w3.org/1999/xlink" x="0px" y="0px"
	 viewBox="0 0 330 110" style="enable-background:new 0 0 330 110;" xml:space="preserve">
<style type="text/css">
	.st0{fill:#F4F4F4;stroke:#F2F4F6;stroke-width:6.62;stroke-miterlimit:10;}
	.st1{fill:#0F1221;stroke:#0F1221;stroke-width:6.62;stroke-miterlimit:10;}
	.st2{fill:#F2F4F6;stroke:#F2F4F6;stroke-width:6.62;stroke-miterlimit:10;}
	.st3{fill:#5C56A5;stroke:#5C56A5;stroke-width:6.62;stroke-miterlimit:10;}
</style>
<path class="st0" d="M234.8,98.3c-23.7-2.2-47.2-3.3-70.5-3.4l-0.1-37.4l9.9,0c3.6,0,6.5-2.5,6.5-5.6l-0.1-47.5l37.6,0l0.1,47.5
	c0,3.1,2.9,5.6,6.5,5.6l9.9,0L234.8,98.3z"/>
<path class="st1" d="M269.7,102.3c-11.7-1.6-23.3-2.9-34.9-4l0-40.8l9.9,0c3.6,0,6.5-2.5,6.5-5.6l-0.1-47.5
	C339.1,6.1,351.3,117.2,269.7,102.3z"/>
<path class="st2" d="M93.7,57.5l9.9,0c3.6,0,6.5-2.5,6.5-5.6l-0.1-47.5l37.6,0l0.1,47.5c0,3.1,2.9,5.5,6.5,5.5l9.9,0l0.1,37.4
	c-23.7,0-47.2,1-70.5,3.3L93.7,57.5z"/>
<path class="st0" d="M176.6,4.5l0.1,45.1c0,1.9-1.6,3.1-2.5,3.1l-9.9,0l-9.9,0c-0.4,0-0.9-0.2-1.3-0.6c-0.7-0.6-1.2-1.6-1.2-2.5
	l-0.1-45.1L176.6,4.5z"/>
<g>
	<path class="st3" d="M83.8,57.6c-3.6,0-6.5-2.5-6.5-5.6L77.2,4.5l-20,0c-72.7,0-70.6,108,4.3,97.8c10.7-1.6,21.5-2.9,32.3-4
		l-0.1-40.8L83.8,57.6z"/>
	<path class="st3" d="M106.1,4.5l-12.4,0l-12.4,0l0.1,45.1c0,1.9,1.6,3.1,2.5,3.1l9.9,0l9.9,0c0.8,0,2.5-1.2,2.5-3.1L106.1,4.5z"/>
</g>
<path class="st1" d="M234.7,4.5l12.4,0l0.1,45.1c0,1.9-1.6,3.1-2.5,3.1l-9.9,0l-9.9,0c-0.4,0-0.9-0.2-1.3-0.6
	c-0.8-0.6-1.2-1.6-1.2-2.5l-0.1-45.1L234.7,4.5z"/>
</svg>
