<?xml version="1.0" encoding="utf-8"?>
<!-- Generator: Adobe Illustrator 22.1.0, SVG Export Plug-In . SVG Version: 6.00 Build 0)  -->
<svg version="1.1" id="Layer_1" xmlns="http://www.w3.org/2000/svg" xmlns:xlink="http://www.w3.org/1999/xlink" x="0px" y="0px"
	 viewBox="0 0 160 160" style="enable-background:new 0 0 160 160;" xml:space="preserve">
<style type="text/css">
	.st0{clip-path:url(#SVGID_1_);}
	.st1{opacity:0.2;}
	.st2{fill:#0F1221;}
	.st3{fill:#F2F4F6;}
	.st4{fill:#5C56A5;}
	.st5{fill:#BFBEBE;}
	.st6{display:none;opacity:1.172678e-02;}
	.st7{display:inline;}
	.st8{fill:#010101;fill-opacity:0;stroke:#BFBDBC;stroke-width:3;}
</style>
<g>
	<defs>
		<rect id="SVGID_3_" width="160" height="160"/>
	</defs>
	<clipPath id="SVGID_1_">
		<use xlink:href="#SVGID_3_"  style="overflow:visible;"/>
	</clipPath>
	<g class="st0">
		<g transform="matrix(1,0,0,1,80,80)" class="st1">
			<g transform="matrix(1,0,0,1,0,0)">
			</g>
			<g transform="matrix(1,0,0,1,0,0)">
			</g>
		</g>
		<g transform="matrix(0.996512234210968,0,0,0.996512234210968,88.2229995727539,92.95099639892578)">
			<g transform="matrix(1,0,0,1,0,0)">
				<path class="st2" d="M0-46.1c25.4,0,46.1,20.7,46.1,46.1S25.4,46.1,0,46.1S-46.1,25.4-46.1,0S-25.4-46.1,0-46.1z"/>
			</g>
		</g>
		<g transform="matrix(0.9982545971870422,0,0,0.9982545971870422,88.2229995727539,92.95099639892578)">
			<g transform="matrix(1,0,0,1,0,0)">
				<path class="st3" d="M0-19.2c10.6,0,19.2,8.6,19.2,19.2S10.6,19.2,0,19.2S-19.2,10.6-19.2,0S-10.6-19.2,0-19.2z"/>
			</g>
		</g>
		<g transform="matrix(1,0,0,1,16.059738159179688,20.719741821289062)">
			<g transform="matrix(1,0,0,1,0,0)">
				<path class="st4" d="M32.6,0v32.6H0L27.4,60H60V27.4L32.6,0z"/>
			</g>
		</g>
		<g transform="matrix(1,0,0,1,73.03373718261719,77.76274108886719)">
			<g transform="matrix(1,0,0,1,0,0)">
				<path class="st5" d="M13.5,16.5L0,3l3-3l13.5,13.5L13.5,16.5z"/>
			</g>
		</g>
		<g transform="matrix(1,0,0,1,76.3624496459961,76.36343383789062)" class="st6">
			<g transform="matrix(1,0,0,1,0,0)" class="st7">
				<path class="st8" d="M3.9,15.1h5.9V8.6"/>
			</g>
		</g>
	</g>
</g>
</svg>
