<?xml version="1.0" encoding="utf-8"?>
<!-- Generator: Adobe Illustrator 22.1.0, SVG Export Plug-In . SVG Version: 6.00 Build 0)  -->
<svg version="1.1" id="Layer_1" xmlns="http://www.w3.org/2000/svg" xmlns:xlink="http://www.w3.org/1999/xlink" x="0px" y="0px"
	 viewBox="0 0 85.2 80.4" style="enable-background:new 0 0 85.2 80.4;" xml:space="preserve">
<style type="text/css">
	.st0{fill:none;stroke:#010101;stroke-width:2;stroke-miterlimit:10;}
</style>
<g>
	<path class="st0" d="M83.6,39c0-7.9-6.4-14.3-14.3-14.3C61.4,24.7,55,31.1,55,39c0,4.6,2.2,8.7,5.6,11.4c1.6-3.3,4.9-5.5,8.7-5.5
		c-3.8,0-6.8-3.1-6.8-6.8s3.1-6.8,6.8-6.8c3.8,0,6.8,3.1,6.8,6.8s-3.1,6.8-6.8,6.8c3.8,0,7.2,2.3,8.7,5.5
		C81.4,47.8,83.6,43.7,83.6,39z"/>
	<path class="st0" d="M69.3,44.9c-3.8,0-7.2,2.3-8.7,5.5c2.4,1.9,5.4,3,8.7,3c3.3,0,6.3-1.1,8.7-3C76.5,47.1,73.2,44.9,69.3,44.9z"
		/>
</g>
<g>
	<path class="st0" d="M49.6,64.7c0-7.9-6.4-14.3-14.3-14.3c-7.9,0-14.3,6.4-14.3,14.3c0,4.6,2.2,8.7,5.6,11.4
		c1.6-3.3,4.9-5.5,8.7-5.5c-3.8,0-6.8-3.1-6.8-6.8s3.1-6.8,6.8-6.8c3.8,0,6.8,3.1,6.8,6.8s-3.1,6.8-6.8,6.8c3.8,0,7.2,2.3,8.7,5.5
		C47.4,73.4,49.6,69.3,49.6,64.7z"/>
	<path class="st0" d="M35.3,70.5c-3.8,0-7.2,2.3-8.7,5.5c2.4,1.9,5.4,3,8.7,3c3.3,0,6.3-1.1,8.7-3C42.4,72.8,39.1,70.5,35.3,70.5z"
		/>
</g>
<g>
	<path class="st0" d="M35.3,15.5c0-7.9-6.4-14.3-14.3-14.3C13,1.2,6.6,7.6,6.6,15.5c0,4.6,2.2,8.7,5.6,11.4c1.6-3.3,4.9-5.5,8.7-5.5
		c-3.8,0-6.8-3.1-6.8-6.8s3.1-6.8,6.8-6.8c3.8,0,6.8,3.1,6.8,6.8s-3.1,6.8-6.8,6.8c3.8,0,7.2,2.3,8.7,5.5
		C33.1,24.2,35.3,20.1,35.3,15.5z"/>
	<path class="st0" d="M20.9,21.3c-3.8,0-7.2,2.3-8.7,5.5c2.4,1.9,5.4,3,8.7,3c3.3,0,6.3-1.1,8.7-3C28.1,23.6,24.8,21.3,20.9,21.3z"
		/>
</g>
<circle class="st0" cx="71.3" cy="8.5" r="4.3"/>
<circle class="st0" cx="49.6" cy="9.7" r="4.3"/>
<circle class="st0" cx="67" cy="63.2" r="4.3"/>
<circle class="st0" cx="7.9" cy="40.6" r="4.3"/>
<circle class="st0" cx="6.6" cy="68.6" r="4.3"/>
<line class="st0" x1="26.6" y1="28.7" x2="32.7" y2="50.6"/>
<line class="st0" x1="62.7" y1="26.3" x2="35.2" y2="17"/>
<line class="st0" x1="34.7" y1="11.5" x2="45.3" y2="9.7"/>
<line class="st0" x1="71.3" y1="24.8" x2="71.3" y2="12.9"/>
<line class="st0" x1="57.8" y1="47.6" x2="47.8" y2="57.7"/>
<line class="st0" x1="7.9" y1="36.3" x2="12.2" y2="26.9"/>
<line class="st0" x1="10.9" y1="68.6" x2="20.9" y2="65.8"/>
<line class="st0" x1="73.7" y1="52.7" x2="70.3" y2="60.5"/>
</svg>
