<?xml version="1.0" encoding="utf-8"?>
<!-- Generator: Adobe Illustrator 22.1.0, SVG Export Plug-In . SVG Version: 6.00 Build 0)  -->
<svg version="1.1" id="Layer_1" xmlns="http://www.w3.org/2000/svg" xmlns:xlink="http://www.w3.org/1999/xlink" x="0px" y="0px"
	 viewBox="0 0 283.5 283.5" style="enable-background:new 0 0 283.5 283.5;" xml:space="preserve">
<style type="text/css">
	.st0{fill:#5C56A5;}
	.st1{fill:#FFFFFF;}
</style>
<path class="st0" d="M238.9-0.1H43.3C19.1-0.1-0.7,19.7-0.7,43.8v195.6c0,24.2,19.8,43.9,43.9,43.9h70.5v0H159v0h79.9
	c24.2,0,43.9-19.8,43.9-43.9V43.8C282.8,19.7,263-0.1,238.9-0.1z"/>
<path class="st1" d="M191.2,173v-24.8c0-4.9,3.9-8.8,8.8-8.8h18.4v-33.6h-33.1c-18.6,0-33.6,15.1-33.6,33.6V173h-26.6v32.6h26.6
	v77.9h39.5v-77.9h21L225,173H191.2z"/>
</svg>
