<?xml version="1.0" encoding="utf-8"?>
<!-- Generator: Adobe Illustrator 22.1.0, SVG Export Plug-In . SVG Version: 6.00 Build 0)  -->
<svg version="1.1" id="Layer_1" xmlns="http://www.w3.org/2000/svg" xmlns:xlink="http://www.w3.org/1999/xlink" x="0px" y="0px"
	 viewBox="0 0 283.5 283.5" style="enable-background:new 0 0 283.5 283.5;" xml:space="preserve">
<style type="text/css">
	.st0{fill:#5C56A5;}
	.st1{fill:#FFFFFF;}
</style>
<g>
	<path class="st0" d="M239.1,0.1H43.5C19.4,0.1-0.4,19.9-0.4,44v195.6c0,24.2,19.8,43.9,43.9,43.9h70.5v0h45.2v0h79.9
		c24.2,0,43.9-19.8,43.9-43.9V44C283.1,19.9,263.3,0.1,239.1,0.1z"/>
	<path class="st1" d="M202.1,150.3L202.1,150.3l-39,0v26.7H196c-9.9,20.5-30.9,34.6-55.2,34.6c-33.9,0-61.3-27.4-61.3-61.3
		c0-33.9,27.4-61.3,61.3-61.3c16.9,0,32.3,6.9,43.3,18l18.6-18.6c-15.8-15.8-37.7-25.7-61.9-25.7c-48.4,0-87.6,39.2-87.6,87.6
		s39.2,87.6,87.6,87.6s87.6-39.2,87.6-87.6H202.1z"/>
</g>
</svg>
