<?xml version="1.0" encoding="utf-8"?>
<!-- Generator: Adobe Illustrator 22.1.0, SVG Export Plug-In . SVG Version: 6.00 Build 0)  -->
<svg version="1.1" id="Layer_1" xmlns="http://www.w3.org/2000/svg" xmlns:xlink="http://www.w3.org/1999/xlink" x="0px" y="0px"
	 viewBox="0 0 283.5 283.5" style="enable-background:new 0 0 283.5 283.5;" xml:space="preserve">
<style type="text/css">
	.st0{fill:#5C56A5;}
	.st1{fill:#FFFFFF;}
	.st2{fill:#5D56A4;}
	.st3{font-family:'12LotteMartHappyBold';}
	.st4{font-size:79.7356px;}
</style>
<g>
	<path class="st0" d="M239.5,0.4H43.9C19.7,0.4-0.1,20.2-0.1,44.3v195.6c0,24.2,19.8,43.9,43.9,43.9h70.5v0h45.2v0h79.9
		c24.2,0,43.9-19.8,43.9-43.9V44.3C283.4,20.2,263.6,0.4,239.5,0.4z"/>
	<path class="st1" d="M245.1,149.8L245.1,149.8c2.9-8.2,4.5-16.9,4.5-25.8c0-49.4-48.3-89.5-108-89.5s-108,40.1-108,89.5
		c0,49.4,48.3,89.5,108,89.5c2.1,0,4.1-0.1,6.2-0.1c1.3-0.1,2.1,1.5,1.4,2.6c-6.9,9.4-13.7,14.9-19,18.1c-1.5,0.9-0.7,3.2,1.1,3
		c67.5-9.8,97.9-53.7,109.4-77.1c1.4-2.7,2.7-5.4,3.8-8.2C244.9,150.4,245.1,149.8,245.1,149.8z"/>
	<text transform="matrix(1 0 0 1 67.4629 158.1396)" class="st2 st3 st4">LINE</text>
</g>
</svg>
