<?xml version="1.0" encoding="utf-8"?>
<!-- Generator: Adobe Illustrator 22.1.0, SVG Export Plug-In . SVG Version: 6.00 Build 0)  -->
<svg version="1.1" id="Layer_1" xmlns="http://www.w3.org/2000/svg" xmlns:xlink="http://www.w3.org/1999/xlink" x="0px" y="0px"
	 viewBox="0 0 283.5 283.5" style="enable-background:new 0 0 283.5 283.5;" xml:space="preserve">
<style type="text/css">
	.st0{fill:#5C56A5;}
	.st1{fill:#FFFFFF;}
</style>
<g>
	<path class="st0" d="M239.1,0.3H43.5C19.4,0.3-0.4,20.1-0.4,44.3v195.6c0,24.2,19.8,43.9,43.9,43.9h70.5v0h45.2v0h79.9
		c24.2,0,43.9-19.8,43.9-43.9V44.3C283.1,20.1,263.3,0.3,239.1,0.3z"/>
	<g>
		<path class="st1" d="M181.7,59.9H100c-27.4,0-49.8,22.4-49.8,49.8v81.7c0,27.4,22.4,49.8,49.8,49.8h81.7
			c27.4,0,49.8-22.4,49.8-49.8v-81.7C231.5,82.3,209.1,59.9,181.7,59.9z M213.4,183.2c0,21.9-17.9,39.9-39.9,39.9h-65.4
			c-21.9,0-39.9-17.9-39.9-39.9v-65.4C68.3,96,86.2,78,108.2,78h65.4c21.9,0,39.9,17.9,39.9,39.9V183.2z"/>
		<circle class="st1" cx="188.3" cy="104.3" r="9"/>
		<path class="st1" d="M140.8,108.1c-23.5,0-42.5,19-42.5,42.5s19,42.5,42.5,42.5s42.5-19,42.5-42.5S164.3,108.1,140.8,108.1z
			 M140.8,176.1c-14.1,0-25.5-11.4-25.5-25.5s11.4-25.5,25.5-25.5s25.5,11.4,25.5,25.5S154.9,176.1,140.8,176.1z"/>
	</g>
</g>
</svg>
