<?xml version="1.0" encoding="utf-8"?>
<!-- Generator: Adobe Illustrator 22.1.0, SVG Export Plug-In . SVG Version: 6.00 Build 0)  -->
<svg version="1.1" id="Layer_1" xmlns="http://www.w3.org/2000/svg" xmlns:xlink="http://www.w3.org/1999/xlink" x="0px" y="0px"
	 viewBox="0 0 283.5 283.5" style="enable-background:new 0 0 283.5 283.5;" xml:space="preserve">
<style type="text/css">
	.st0{fill:#5C56A5;}
	.st1{fill:#FFFFFF;}
</style>
<g>
	<path class="st0" d="M239.1-0.4H43.5C19.3-0.4-0.4,19.4-0.4,43.5v195.6c0,24.2,19.8,43.9,43.9,43.9H114v0h45.2v0h79.9
		c24.2,0,43.9-19.8,43.9-43.9V43.5C283,19.4,263.3-0.4,239.1-0.4z"/>
	<path class="st1" d="M234.5,42.5L44.9,117c-3.4,1.3-3.8,6-0.6,7.8l42.2,24.4L175.4,95c1-0.6,2.1,0.7,1.3,1.6l-62.4,68.7l0.9,0.5
		c0.6,0.4,1.2,0.9,1.5,1.5l-2.4-2l-0.5,0.5l-12.3,40.2c-0.7,2.2,1.7,4.1,3.7,3l27.1-14.9l25.5,44.1c1.8,3.2,6.5,2.8,7.8-0.6
		l74.5-189.6C241.5,44.6,238,41.1,234.5,42.5z"/>
</g>
</svg>
