<?xml version="1.0" encoding="utf-8"?>
<!-- Generator: Adobe Illustrator 22.1.0, SVG Export Plug-In . SVG Version: 6.00 Build 0)  -->
<svg version="1.1" id="Layer_1" xmlns="http://www.w3.org/2000/svg" xmlns:xlink="http://www.w3.org/1999/xlink" x="0px" y="0px"
	 viewBox="0 0 173.5 97.2" style="enable-background:new 0 0 173.5 97.2;" xml:space="preserve">
<style type="text/css">
	.st0{fill:none;stroke:#F2F4F5;stroke-width:0.7632;stroke-miterlimit:10;}
	.st1{fill:#F4F4F4;stroke:#F2F4F5;stroke-width:0.7632;stroke-miterlimit:10;}
	.st2{fill:#F2F4F5;}
	.st3{font-family:'12LotteMartHappyBold';}
	.st4{font-size:41.1678px;}
</style>
<g>
	<path class="st0" d="M70.9,35.4l-4.3,4.3l-5-5l0.6-0.6c0.2-0.2,0.1-0.7-0.2-1l-4.2-4.2c0.7-0.8,1.4-1.6,2.1-2.5l4.4,4.4
		c0.3,0.3,0.8,0.4,1,0.2l0.6-0.6L70.9,35.4z"/>
	<path class="st0" d="M71.8,34.5l-0.9,0.9l-5-5l0.6-0.6c0.2-0.2,0.1-0.7-0.2-1l-4.7-4.8c0.3-0.5,0.6-0.9,0.9-1.4
		C66,16,77.4,29,71.8,34.5z"/>
	<path class="st0" d="M66.6,39.7l-4.4,4.3l-5-5l0.6-0.6c0.2-0.2,0.1-0.7-0.2-1l-4.4-4.4c0.9-0.7,1.7-1.4,2.5-2.1l4.2,4.2
		c0.3,0.3,0.8,0.4,1,0.2l0.6-0.6L66.6,39.7z"/>
	<path class="st0" d="M62.2,44.1L60,46.3c-4.5,4.5-16-7.3-10.3-10.8c0.4-0.2,0.8-0.5,1.2-0.7l4.8,4.8c0.3,0.3,0.8,0.4,1,0.2l0.6-0.6
		L62.2,44.1z"/>
	<path class="st1" d="M60.1,34.8c-0.1,0-0.1-0.1-0.2-0.1l-3.9-4c0.2-0.2,0.5-0.5,0.8-0.8c0.3-0.3,0.5-0.5,0.7-0.8l3.9,4
		c0.2,0.2,0.2,0.4,0.2,0.5l-1.2,1.2C60.4,34.9,60.3,34.9,60.1,34.8z"/>
	<path class="st1" d="M55.8,39.1c-0.1,0-0.1-0.1-0.2-0.1l-4.4-4.4c0.3-0.2,0.6-0.4,0.9-0.6c0.3-0.2,0.6-0.4,0.9-0.7l4.2,4.2
		c0.1,0.1,0.2,0.2,0.2,0.3c0,0.1,0,0.1,0,0.1l-1.2,1.2C56.1,39.2,56,39.2,55.8,39.1z"/>
	<path class="st1" d="M64.5,30.5c-0.1,0-0.1-0.1-0.2-0.1l-4.2-4.2c0.2-0.3,0.4-0.6,0.7-0.9c0.2-0.3,0.4-0.6,0.6-0.9l4.4,4.4
		c0.2,0.2,0.2,0.4,0.2,0.5l-1.2,1.2C64.8,30.6,64.7,30.6,64.5,30.5z"/>
	<path class="st0" d="M54.5,25.6c-1.7,1.2-3.3,2.5-4.7,4l-4-4l0.6-0.6c0.2-0.2,0.1-0.7-0.2-1L41,18.8l2.3-2.3l5.1,5.1
		c0.3,0.3,0.8,0.4,1,0.2l0.6-0.6L54.5,25.6z"/>
	<path class="st0" d="M57.1,23.8c-0.9,0.5-1.7,1.1-2.6,1.7l-4.4-4.4l0.6-0.6c0.2-0.2,0.1-0.7-0.2-1l-5.1-5.1
		C50.9,9.2,63.7,20.4,57.1,23.8z"/>
	<path class="st0" d="M41.4,29.9l0.6-0.6c0.2-0.2,0.1-0.7-0.2-1l-5.1-5.1l2.3-2.3l5.1,5.1c0.3,0.3,0.8,0.4,1,0.2l0.6-0.6l4,4
		c-1.5,1.5-2.8,3-4,4.7L41.4,29.9z"/>
	<path class="st0" d="M33.4,26.4l1.2-1.2l5.1,5.1c0.3,0.3,0.8,0.4,1,0.2l0.6-0.6l4.4,4.4c-0.5,0.8-1.1,1.6-1.6,2.4
		C40.7,42.4,28.9,30.8,33.4,26.4z"/>
	<path class="st1" d="M40.8,19l4.9,4.9c0.2,0.2,0.2,0.4,0.2,0.5L45.2,25l-0.6,0.6c0,0-0.1,0-0.1,0c-0.1,0-0.2-0.1-0.3-0.2l-4.9-4.9
		L40.8,19z"/>
	<path class="st1" d="M35.7,24.1l0.8-0.8l4.9,4.9c0.2,0.2,0.2,0.4,0.2,0.5l-0.6,0.6l-0.6,0.6c-0.1,0.1-0.3,0-0.5-0.2l-4.9-4.9
		L35.7,24.1z"/>
	<path class="st1" d="M44.3,15.4l0.8-0.8l4.9,4.9c0.2,0.2,0.2,0.4,0.2,0.5l-0.6,0.6l-0.6,0.6c0,0-0.1,0-0.1,0
		c-0.1,0-0.2-0.1-0.3-0.2l-4.9-4.9L44.3,15.4z"/>
	<text transform="matrix(1 0 0 1 24.8088 86.509)" class="st2 st3 st4">피아노와</text>
	<path class="st2" d="M132.1,5.2c0.1-0.4,0-0.8-0.4-1l-2.2-1.5c-1.1-0.7-2.5-0.5-3.2,0.6l-23.4,43.5c-0.3,0.6-1.2,0.4-1.3-0.2
		c-0.3-1.9-0.8-3.8-1.3-5.7c-0.5-1.9-1.1-3.7-1.8-5.6c-1.7-4.4-4.1-8.6-6.8-12.5C86,15.1,78.5,8.7,69.7,4.6
		C60.9,0.6,50.8-1.1,41,0.8c-4.9,0.9-9.6,2.6-13.9,5c-4.4,2.4-8.4,5.3-11.9,8.8c-0.9,0.9-1.8,1.8-2.6,2.7l-2.4,2.9c0,0,0,0,0,0
		c-0.7,1-1.4,2-2.1,3.1c-0.7,1-1.3,2.2-1.9,3.2C3.7,30.9,1.9,35.6,1,40.6c-1.1,5-1,10.2-0.3,15.2c0.2,1.2,0.4,2.5,0.7,3.7l1,3.7
		c0.4,1.2,0.9,2.4,1.3,3.6C4,67.4,4.2,68,4.5,68.5l0.9,1.7l0.9,1.7l0.4,0.8C6.8,73,7,73.3,7.2,73.5l2,3.1c0,0,0,0,0,0
		c0.7,1,1.6,1.9,2.3,2.9c0.4,0.5,0.8,1,1.2,1.4l1.3,1.3l1.3,1.3l0.7,0.7l0.7,0.6c0.9,0.8,1.9,1.6,2.9,2.4c1,0.7,2.1,1.4,3.1,2.1
		c0.5,0.3,1,0.7,1.6,1l1.6,0.9c8.7,4.8,18.8,6.6,28.2,5.3L50.7,96L49,95.7c0,0,0,0-0.1,0l-1.6-0.5c-1.1-0.3-2.2-0.6-3.3-1
		c0,0,0,0-0.1,0c-1.1-0.4-2.1-0.8-3.2-1.2c-4.2-1.7-8.3-3.7-11.8-6.4l-1.4-0.9c-0.4-0.3-0.9-0.7-1.3-1c-0.9-0.7-1.7-1.4-2.6-2.1
		c-1.6-1.6-3.2-3-4.6-4.7c-2.9-3.3-5.4-6.9-7.2-10.8C10,63.1,8.6,59,8,54.7c-0.1-0.5-0.2-1-0.3-1.6c0,0,0,0,0-0.1l-0.1-1.6l-0.1-1.6
		c0-0.5-0.1-1.1,0-1.6c0.1-1.1,0.1-2.1,0.1-3.2c0,0,0,0,0-0.1L8,41.9c1.4-8.5,5.5-16.6,11.5-23.1c3-3.2,6.4-6.1,10.2-8.4
		c3.8-2.3,7.9-4.1,12.2-5.1c8.6-2.1,18-1.1,26.4,2.3c8.5,3.4,16,9.1,21.8,16.3c4.2,5.2,7.4,11.2,9.7,17.5c0.7,1.9,1.3,3.9,1.8,5.9
		c0.1,0.6,0.9,0.8,1.3,0.2l21.3-30.9c2.6,2.3,5,4.9,7.2,7.7c2.4,3.1,4.1,6,5.3,8.5c1.2,2.3,1.8,4.4,1.8,6.2c0,1.8-0.3,3.3-1.1,4.5
		c-1.3,2.2-3.5,3.2-6.7,3.5c-4.1,0.4-5.9,0.4-8.1,0.4c2.7,0.3,7.6,1.3,11.1,1.3c3.6,0,6.2-1.5,7.9-3.6c1.1-1.3,1.4-3.1,1.2-5.4
		c-0.3-2.3-1.1-4.9-2.5-7.8c-0.9-2.1-2.1-4.4-3.6-7c-1.5-2.6-2.8-5.2-4-7.7c-1.7-3.5-2.3-6.1-1.8-7.7L132.1,5.2z"/>
</g>
</svg>
