<?xml version="1.0" encoding="utf-8"?>
<!-- Generator: Adobe Illustrator 22.1.0, SVG Export Plug-In . SVG Version: 6.00 Build 0)  -->
<svg version="1.1" id="Layer_1" xmlns="http://www.w3.org/2000/svg" xmlns:xlink="http://www.w3.org/1999/xlink" x="0px" y="0px"
	 viewBox="0 0 182.7 508.6" style="enable-background:new 0 0 182.7 508.6;" xml:space="preserve">
<style type="text/css">
	.st0{fill:#0E1121;}
</style>
<path class="st0" d="M179.1,298.2c-1.1-4.7-2.5-9.3-4.4-13.5c-1.9-4.3-4-8.4-6.6-12.2c-10-15.3-24.9-26.7-41.7-31.4
	c-4.2-1.2-8.5-1.9-12.7-2.2c-4.3-0.2-8.5-0.1-12.5,0.5c-1.1,0.1-2.2,0.3-3.2,0.5c-1.2-13.1-2.4-26.5-3.4-40
	c12.1-12.2,23.8-25.2,34.2-40.6c6.7-10.1,13-21.3,16.8-33.8c1.9-6.2,3.2-12.5,4-18.8c0.4-3.2,0.6-6.1,0.8-9.4l0.2-4.2l0.1-4.7
	c0.1-12.1-1.2-24.2-4.2-36.1c-3-11.9-7.3-23.6-14.8-34.3c-1.9-2.7-4-5.3-6.4-7.7c-2.5-2.4-5.2-4.8-8.8-6.7c-1.8-0.9-3.8-1.7-6.1-2.2
	C109.1,1.2,108,1,106.7,1c-0.4,0-0.3,0-1.2,0l-0.5,0c-0.5,0-1.8,0.2-2.4,0.3c-2.8,0.6-5.2,1.9-7,3.4c-1.8,1.4-3.2,3-4.4,4.6
	c-4.4,6.2-6.1,12.1-7.8,18c-1.5,5.8-2.5,11.6-3.2,17.2c-2.7,22.7-2.9,44.9-2.3,66.7c0.4,19.2,1.4,38.1,2.8,56.7
	c-6.6,7-13.4,13.9-20.1,20.8c-3.9,4-7.7,7.7-11.7,11.9c-4.1,4.3-8,8.6-11.7,13.2c-7.4,9.2-14,19.1-19.4,29.5
	c-5.5,10.4-9.8,21.4-12.5,32.9c-2.8,11.4-4,23.1-3.3,34.8c0.1,2.9,0.5,5.8,0.9,8.7c0.5,2.9,0.9,5.7,1.7,8.5
	c1.3,5.6,3.4,11.1,5.8,16.2c4.8,10.4,12.2,19.4,20.7,26.4l3.2,2.5l3.4,2.3c2.2,1.6,4.8,2.9,7.1,4.2l3.4,1.6l1.9,0.9l1.8,0.7l3.6,1.5
	l3.7,1.3c9.8,3.3,20.1,5.2,30.2,5.5c7,0.2,14.1-0.3,20.9-1.5c0.7,4.7,1.5,9.5,2.1,14.1c1.2,8.3,2.1,16.5,2.9,24.4
	c0.7,8,1.1,15.8,0.9,23.3c-0.1,3.8-0.4,7.5-0.9,11c-0.1,0.9-0.2,1.9-0.4,2.6l-0.6,2.7c-0.5,1.6-0.9,3.2-1.5,4.8
	c-2.3,6.4-6,12.1-10.6,16.4c-4.6,4.3-10.1,7.2-15.7,8.7l-2.1,0.5l-0.5,0.1c-0.1,0-0.3,0.1-0.2,0l-0.3,0l-1.2,0.2
	c-1.4,0.2-2.7,0.3-4.1,0.3c-2.8,0-5.5-0.1-8.1-0.7c-2.6-0.6-5-1.4-7.2-2.4c-2.2-1.1-4.2-2.5-5.9-3.9c-3.4-3-5.6-6.7-6.7-10.3
	c-0.6-1.8-0.8-3.7-0.9-5.5c-0.1-0.9,0-1.8,0-2.7l0.1-1.3c0.1,0.4,0,0,0,0l0-0.2l0-0.4l0-0.8c0.2-1.2,0.5-3,1-4.4
	c0.5-1.4,1.1-2.7,1.7-3.8c0.8-1.5,1.8-2.6,2.7-3.5c3.5,2.6,7.9,4.1,12.6,4.1c11.9,0,21.5-9.6,21.5-21.5c0-11.9-9.4-21.9-21.3-22.1
	c-8.5-0.2-17.2,2.2-25.2,10.6c-6.4,6.7-11.5,16.2-12.8,26.4c-0.4,2.5-0.5,5.1-0.4,7.8c0.1,2.7,0.3,5.2,0.9,8.3
	c1.1,5,3.3,10.8,6.6,15.8c3.3,5.1,7.9,9.6,13.4,12.9c2.7,1.7,5.7,3,8.7,4c3.1,1,6.3,1.7,9.5,2.1c3.3,0.4,6.6,0.4,10,0.1
	c1.6-0.2,3.4-0.4,5.1-0.8l1.2-0.3l0.7-0.2l0.6-0.2l2.5-0.7c3.3-1.1,6.6-2.6,9.7-4.5c3.1-1.9,5.9-4.2,8.5-6.8
	c5.1-5.3,9.2-11.9,11.5-19.3c0.6-1.8,1.1-3.8,1.5-5.7l0.5-2.7c0.2-1.1,0.3-1.9,0.4-2.9c0.5-3.8,0.6-7.7,0.7-11.6
	c0.2-15.6-1.8-31.8-3.8-48.5c-0.6-4.8-1.3-9.6-1.9-14.5c10.9-2.6,21.3-6.9,30.6-13.1c8.2-5.5,15.6-12.4,21.3-20.6
	c2.9-4.1,5.3-8.5,7.3-13c1-2.3,1.8-4.6,2.6-7c0.4-1.1,0.7-2.5,1-3.8c0.3-1.3,0.7-2.7,0.8-3.6l0.6-3.1l0.5-4.1c0.2-2.5,0.4-5,0.3-7.5
	C180.8,307.8,180.2,302.9,179.1,298.2z M106,17.6c0.1,0-0.1,0-0.2,0C105.9,17.6,106,17.6,106,17.6z M105.7,16.5L105.7,16.5
	C105.6,16.5,105.6,16.5,105.7,16.5z M90.4,111.1c0-10.7,0.3-21.5,0.9-32.3c0.6-10.8,1.6-21.6,3.4-32c0.9-5.2,2-10.4,3.5-15.3
	c1.5-4.8,3.5-9.5,5.7-12.3c0.7-0.9,1.4-1.4,1.7-1.5l0.4,0c-0.6,0-0.1,0-0.2,0c0.1,0,0.3,0.1,0.5,0.1c0.4,0.2,1,0.4,1.7,0.8
	c2.7,1.6,5.7,5.3,7.9,9.3c4.5,8.3,7,18.4,8.2,28.5c1.1,10.2,0.9,20.6,0.1,30.9l-0.3,3.7l-0.5,4.2c-0.3,2.3-0.7,4.9-1.2,7.3
	c-1,4.8-2.2,9.4-4,13.8c-3.4,8.8-8.6,17.1-14.8,25.2c-3.8,4.8-7.8,9.6-12,14.4C91,141.2,90.5,126.2,90.4,111.1z M89.8,381.9
	c-4.6-0.1-9.2-0.7-13.7-1.6c-4.6-0.9-9-2.2-13.4-3.9l-3.3-1.3l-3.2-1.5l-1.6-0.8l-1.5-0.8l-3.3-1.8c-3.7-2.4-7.6-5.1-10.9-8.4
	c-3.3-3.2-6.3-6.8-8.7-10.7c-2.4-3.9-4.5-8-6-12.5c-1.5-4.4-2.5-8.9-3-13.6c-0.4-2.3-0.3-4.7-0.5-7c0.1-2.4,0-4.7,0.3-7.1
	c1.4-18.9,9.3-37.4,20.2-53.9c5.5-8.3,11.8-16.1,18.7-23.5c3.4-3.7,7-7.3,10.8-10.8c4-3.8,8-7.5,12-11.3c0.5-0.5,1-1,1.5-1.5
	c1.1,11.1,2.2,22.1,3.5,32.9c-0.3,0.1-0.6,0.3-1,0.4l-2.6,1.1c-1.6,0.8-3.3,1.6-4.8,2.5c-12.5,7.1-21.6,17.5-26.5,28
	c-5.1,10.5-6.4,20.9-5.9,29.5c0.7,8.7,3.3,15.8,6.6,20.7c3.2,5,7,7.6,9.5,9c0.6,0.3,1.2,0.6,1.7,0.9c0.5,0.2,0.9,0.3,1.3,0.4
	c0.7,0.2,1,0.4,1,0.4s-0.2-0.3-0.7-0.8c-0.5-0.5-1.2-1.3-2-2.4c-1.5-2.1-3.5-5.6-4.4-10.3c-1-4.7-1.1-10.6,0.4-17.2
	c1.4-6.5,4.6-13.6,9.6-20.1c5-6.4,12-12,20.8-15.4c0.1-0.1,0.2-0.1,0.4-0.1c1.2,9.1,2.5,18.1,3.9,27c2.9,19.1,6,37.7,9.1,55.6
	c1.5,8.9,3,17.7,4.5,26.4c0.1,0.5,0.2,1,0.2,1.5C102.7,381.4,96.3,382.1,89.8,381.9z M157.3,325c-0.2,13.5-6.7,28.9-19.1,39.9
	c-6.6,6-14.8,10.6-23.8,13.5c-3.6-26.3-7.3-54-10.7-83c-1.1-9.3-2.1-18.8-3.1-28.4c0.1,0,0.1,0,0.2,0c1.1-0.1,2.2-0.3,3.4-0.3
	c4.6-0.3,9.3,0.4,14,2c9.5,3.2,19.1,10.2,26.6,20.1c3.7,4.9,7,10.6,9.2,16.6c1.1,3,2,6.2,2.6,9.5c0.3,1.6,0.5,3.3,0.6,4.9l0.1,1.2
	l0,0.6l0,0.3c0,0.5,0.1-0.3,0,0L157.3,325z"/>
</svg>
