<?xml version="1.0" encoding="utf-8"?>
<!-- Generator: Adobe Illustrator 22.1.0, SVG Export Plug-In . SVG Version: 6.00 Build 0)  -->
<svg version="1.1" id="Layer_1" xmlns="http://www.w3.org/2000/svg" xmlns:xlink="http://www.w3.org/1999/xlink" x="0px" y="0px"
	 viewBox="0 0 560.6 439.3" style="enable-background:new 0 0 560.6 439.3;" xml:space="preserve">
<style type="text/css">
	.st0{fill:#F4F4F4;}
</style>
<path class="st0" d="M106,421.4c-34-42-53.2-96.5-49.5-155.6C63.9,149.7,160.9,57.7,277.2,56.1c125.3-1.7,227.4,99.3,227.4,224.2
	c0,53.9-19,103.4-50.8,142.1c0.1,0.2,0.2,0.3,0.4,0.5c18.8,23.7,55.4,21.5,70.3-4.9c24.9-44,38.2-95.4,35.9-150.1
	C554,121.4,433.5,3.5,287,0.1C129.1-3.6,0,123.3,0,280.3c0,49.8,13,96.6,35.9,137.2c14.7,26.2,51.4,28,69.8,4.3L106,421.4z"/>
</svg>
