<?xml version="1.0" encoding="utf-8"?>
<!-- Generator: Adobe Illustrator 22.1.0, SVG Export Plug-In . SVG Version: 6.00 Build 0)  -->
<svg version="1.1" id="Layer_1" xmlns="http://www.w3.org/2000/svg" xmlns:xlink="http://www.w3.org/1999/xlink" x="0px" y="0px"
	 viewBox="0 0 134.5 138.7" style="enable-background:new 0 0 134.5 138.7;" xml:space="preserve">
<style type="text/css">
	.st0{fill:none;stroke:#020721;stroke-width:10.0627;stroke-miterlimit:10;}
	.st1{fill:none;stroke:#020721;stroke-width:5.0313;stroke-linecap:round;stroke-miterlimit:10;}
	.st2{fill:none;stroke:#020721;stroke-width:9.0564;stroke-linecap:round;stroke-miterlimit:10;}
	.st3{fill:none;stroke:#020721;stroke-width:6.0867;stroke-linecap:round;stroke-miterlimit:10;}
</style>
<path class="st0" d="M106.7,104H27.8c-7.7,0-14.1-6.3-14.1-14.1V20.8c0-7.7,6.3-14.1,14.1-14.1h78.8c7.7,0,14.1,6.3,14.1,14.1v69.1
	C120.8,97.6,114.4,104,106.7,104z"/>
<line class="st0" x1="13.8" y1="76.3" x2="120.8" y2="76.3"/>
<line class="st1" x1="52" y1="89.9" x2="82.5" y2="89.3"/>
<path class="st2" d="M99,130.5H35.5c-3.4,0-6.2-2.8-6.2-6.2v0c0-3.4,2.8-6.2,6.2-6.2H99c3.4,0,6.2,2.8,6.2,6.2v0
	C105.2,127.7,102.4,130.5,99,130.5z"/>
<rect x="44.2" y="104" class="st3" width="46.1" height="14.1"/>
</svg>
